<svg xmlns="http://www.w3.org/2000/svg" viewBox="0 0 512 512">
  <defs>
    <linearGradient id="bgGrad" x1="0%" y1="0%" x2="100%" y2="100%">
      <stop offset="0%" style="stop-color:#0a0a0f"/>
      <stop offset="100%" style="stop-color:#1a1a24"/>
    </linearGradient>
    <linearGradient id="brainGrad" x1="0%" y1="0%" x2="100%" y2="100%">
      <stop offset="0%" style="stop-color:#00f5d4"/>
      <stop offset="100%" style="stop-color:#9b5de5"/>
    </linearGradient>
  </defs>
  <rect width="512" height="512" rx="100" fill="url(#bgGrad)"/>
  <g transform="translate(106, 106) scale(1.2)">
    <path fill="url(#brainGrad)" d="M256 72c-15.8 0-31.2 3.1-45.6 8.8-14.4 5.7-27.7 14.1-39.2 25.6-11.5 11.5-20.6 24.8-26.8 39.2-6.2 14.4-9.6 29.8-10 45.6 0 0.4-0.1 0.8-0.1 1.2v0.4c0 9.4 1.9 18.5 5.4 27.2 3.5 8.7 8.5 16.5 14.8 23.2 6.3 6.7 13.7 12.2 22 16.2 8.3 4 17.1 6.4 26.3 7.1v52.5h-32c-4.4 0-8 3.6-8 8v48c0 4.4 3.6 8 8 8h144c4.4 0 8-3.6 8-8v-48c0-4.4-3.6-8-8-8h-32v-52.5c9.2-0.7 18-3.1 26.3-7.1 8.3-4 15.7-9.5 22-16.2 6.3-6.7 11.3-14.5 14.8-23.2 3.5-8.7 5.4-17.8 5.4-27.2v-0.4c0-0.4-0.1-0.8-0.1-1.2-0.4-15.8-3.8-31.2-10-45.6-6.2-14.4-15.3-27.7-26.8-39.2-11.5-11.5-24.8-19.9-39.2-25.6-14.4-5.7-29.8-8.8-45.6-8.8zm-64 119.6c-0.1-1.9-0.1-3.8-0.1-5.6 0-35.3 28.7-64 64-64s64 28.7 64 64c0 1.9 0 3.7-0.1 5.6-5.7 5.2-13.1 8.4-21.1 8.4-17.7 0-32-14.3-32-32 0-4.4-3.6-8-8-8s-8 3.6-8 8c0 17.7-14.3 32-32 32-8 0-15.4-3.2-21.1-8.4z"/>
  </g>
  <text x="256" y="460" text-anchor="middle" fill="#00f5d4" font-family="Arial Black" font-size="72" font-weight="bold">IQ</text>
</svg>